<svg width="32" height="32" viewBox="0 0 32 32" fill="none" xmlns="http://www.w3.org/2000/svg">
<path d="M16.0013 29.3334C8.63751 29.3334 2.66797 23.3639 2.66797 16.0001C2.66797 8.63628 8.63751 2.66675 16.0013 2.66675C23.3651 2.66675 29.3346 8.63628 29.3346 16.0001C29.3266 23.3605 23.3617 29.3253 16.0013 29.3334ZM15.98 26.6668H16.0013C21.8903 26.6609 26.6602 21.8837 26.6573 15.9948C26.6544 10.1058 21.8796 5.33342 15.9906 5.33342C10.1017 5.33342 5.32691 10.1058 5.32397 15.9948C5.32103 21.8837 10.091 26.6609 15.98 26.6668ZM13.3346 22.6667L8.0013 17.3334L9.8813 15.4534L13.3346 18.8934L22.1213 10.1067L24.0013 12.0001L13.3346 22.6667Z" fill="#7b00ff"/>
</svg>
